<svg xmlns="http://www.w3.org/2000/svg" version="1.1" xmlns:xlink="http://www.w3.org/1999/xlink" xmlns:svgjs="http://svgjs.dev/svgjs" width="1920" height="1080" preserveAspectRatio="none" viewBox="0 0 1920 1080"><g mask="url(&quot;#SvgjsMask1015&quot;)" fill="none"><rect width="1920" height="1080" x="0" y="0" fill="rgba(225, 66, 48, 1)"></rect><path d="M 0,107 C 96,139.8 288,274.8 480,271 C 672,267.2 768,105.4 960,88 C 1152,70.6 1248,185.6 1440,184 C 1632,182.4 1824,100.8 1920,80L1920 1080L0 1080z" fill="rgba(255, 101, 0, 1)"></path><path d="M 0,544 C 96,539.8 288,517.6 480,523 C 672,528.4 768,571.8 960,571 C 1152,570.2 1248,489.6 1440,519 C 1632,548.4 1824,678.2 1920,718L1920 1080L0 1080z" fill="rgba(251, 222, 4, 1)"></path><path d="M 0,782 C 96,809.4 288,925.2 480,919 C 672,912.8 768,733.6 960,751 C 1152,768.4 1248,978 1440,1006 C 1632,1034 1824,914 1920,891L1920 1080L0 1080z" fill="rgba(225, 66, 48, 1)"></path></g><defs><mask id="SvgjsMask1015"><rect width="1920" height="1080" fill="#ffffff"></rect></mask></defs></svg>